<?xml version="1.0" encoding="UTF-8" standalone="no"?>
<!DOCTYPE svg PUBLIC "-//W3C//DTD SVG 1.1//EN"
 "http://www.w3.org/Graphics/SVG/1.1/DTD/svg11.dtd">
<!-- Generated by graphviz version 2.43.0 (0)
 -->
<!-- Title: TrainCallGraph Pages: 1 -->
<svg width="1186pt" height="488pt"
 viewBox="0.00 0.00 1185.50 488.00" xmlns="http://www.w3.org/2000/svg" xmlns:xlink="http://www.w3.org/1999/xlink">
<g id="graph0" class="graph" transform="scale(1 1) rotate(0) translate(4 484)">
<title>TrainCallGraph</title>
<polygon fill="white" stroke="transparent" points="-4,4 -4,-484 1181.5,-484 1181.5,4 -4,4"/>
<!-- train -->
<g id="node1" class="node">
<title>train</title>
<path fill="#f8f9fb" stroke="#2b2f33" d="M427,-480C427,-480 208,-480 208,-480 202,-480 196,-474 196,-468 196,-468 196,-439 196,-439 196,-433 202,-427 208,-427 208,-427 427,-427 427,-427 433,-427 439,-433 439,-439 439,-439 439,-468 439,-468 439,-474 433,-480 427,-480"/>
<text text-anchor="middle" x="317.5" y="-464.8" font-family="Helvetica,sans-Serif" font-size="14.00">scripts/instinct_rl/train.py</text>
<text text-anchor="middle" x="317.5" y="-449.8" font-family="Helvetica,sans-Serif" font-size="14.00">(entry)</text>
<text text-anchor="middle" x="317.5" y="-434.8" font-family="Helvetica,sans-Serif" font-size="14.00">parse CLI · AppLauncher · Hydra</text>
</g>
<!-- app -->
<g id="node2" class="node">
<title>app</title>
<path fill="#f8f9fb" stroke="#2b2f33" d="M177,-390C177,-390 12,-390 12,-390 6,-390 0,-384 0,-378 0,-378 0,-364 0,-364 0,-358 6,-352 12,-352 12,-352 177,-352 177,-352 183,-352 189,-358 189,-364 189,-364 189,-378 189,-378 189,-384 183,-390 177,-390"/>
<text text-anchor="middle" x="94.5" y="-374.8" font-family="Helvetica,sans-Serif" font-size="14.00">AppLauncher / Isaac Sim</text>
<text text-anchor="middle" x="94.5" y="-359.8" font-family="Helvetica,sans-Serif" font-size="14.00">(simulation app)</text>
</g>
<!-- train&#45;&gt;app -->
<g id="edge1" class="edge">
<title>train&#45;&gt;app</title>
<path fill="none" stroke="black" d="M246.64,-426.92C216.84,-416.16 182.57,-403.79 154.1,-393.52"/>
<polygon fill="black" stroke="black" points="155.28,-390.22 144.69,-390.12 152.9,-396.8 155.28,-390.22"/>
</g>
<!-- import_tasks -->
<g id="node3" class="node">
<title>import_tasks</title>
<path fill="#f8f9fb" stroke="#2b2f33" d="M415.5,-390C415.5,-390 219.5,-390 219.5,-390 213.5,-390 207.5,-384 207.5,-378 207.5,-378 207.5,-364 207.5,-364 207.5,-358 213.5,-352 219.5,-352 219.5,-352 415.5,-352 415.5,-352 421.5,-352 427.5,-358 427.5,-364 427.5,-364 427.5,-378 427.5,-378 427.5,-384 421.5,-390 415.5,-390"/>
<text text-anchor="middle" x="317.5" y="-374.8" font-family="Helvetica,sans-Serif" font-size="14.00">import instinctlab.tasks</text>
<text text-anchor="middle" x="317.5" y="-359.8" font-family="Helvetica,sans-Serif" font-size="14.00">(task registration via configs)</text>
</g>
<!-- train&#45;&gt;import_tasks -->
<g id="edge2" class="edge">
<title>train&#45;&gt;import_tasks</title>
<path fill="none" stroke="black" d="M317.5,-426.59C317.5,-418.31 317.5,-409.11 317.5,-400.65"/>
<polygon fill="black" stroke="black" points="321,-400.47 317.5,-390.47 314,-400.47 321,-400.47"/>
</g>
<!-- gym_make -->
<g id="node4" class="node">
<title>gym_make</title>
<path fill="#f8f9fb" stroke="#2b2f33" d="M679,-390C679,-390 458,-390 458,-390 452,-390 446,-384 446,-378 446,-378 446,-364 446,-364 446,-358 452,-352 458,-352 458,-352 679,-352 679,-352 685,-352 691,-358 691,-364 691,-364 691,-378 691,-378 691,-384 685,-390 679,-390"/>
<text text-anchor="middle" x="568.5" y="-374.8" font-family="Helvetica,sans-Serif" font-size="14.00">gym.make(task_id, cfg=env_cfg)</text>
<text text-anchor="middle" x="568.5" y="-359.8" font-family="Helvetica,sans-Serif" font-size="14.00">→ lookup entry_point</text>
</g>
<!-- train&#45;&gt;gym_make -->
<g id="edge4" class="edge">
<title>train&#45;&gt;gym_make</title>
<path fill="none" stroke="black" d="M397.26,-426.92C431.09,-416.07 470.04,-403.58 502.25,-393.25"/>
<polygon fill="black" stroke="black" points="503.56,-396.5 512.01,-390.12 501.42,-389.84 503.56,-396.5"/>
</g>
<!-- task_cfg -->
<g id="node5" class="node">
<title>task_cfg</title>
<path fill="#f8f9fb" stroke="#2b2f33" d="M512,-305C512,-305 123,-305 123,-305 117,-305 111,-299 111,-293 111,-293 111,-279 111,-279 111,-273 117,-267 123,-267 123,-267 512,-267 512,-267 518,-267 524,-273 524,-279 524,-279 524,-293 524,-293 524,-299 518,-305 512,-305"/>
<text text-anchor="middle" x="317.5" y="-289.8" font-family="Helvetica,sans-Serif" font-size="14.00">Task cfg (plane_shadowing_cfg.py)</text>
<text text-anchor="middle" x="317.5" y="-274.8" font-family="Helvetica,sans-Serif" font-size="14.00">defines scene, robot, motion_reference, AmassMotionCfg</text>
</g>
<!-- import_tasks&#45;&gt;task_cfg -->
<g id="edge3" class="edge">
<title>import_tasks&#45;&gt;task_cfg</title>
<path fill="none" stroke="black" d="M317.5,-351.99C317.5,-341.3 317.5,-327.5 317.5,-315.37"/>
<polygon fill="black" stroke="black" points="321,-315.26 317.5,-305.26 314,-315.26 321,-315.26"/>
<text text-anchor="middle" x="366.5" y="-326" font-family="Times,serif" font-size="10.00">registers Gym id(s)</text>
</g>
<!-- gym_make&#45;&gt;task_cfg -->
<g id="edge6" class="edge">
<title>gym_make&#45;&gt;task_cfg</title>
<path fill="none" stroke="black" stroke-dasharray="5,2" d="M514.04,-351.99C475.19,-339.15 422.81,-321.82 381.9,-308.29"/>
<polygon fill="black" stroke="black" points="382.88,-304.93 372.29,-305.12 380.69,-311.58 382.88,-304.93"/>
</g>
<!-- instinct_env -->
<g id="node6" class="node">
<title>instinct_env</title>
<path fill="#f8f9fb" stroke="#2b2f33" d="M752.5,-305C752.5,-305 554.5,-305 554.5,-305 548.5,-305 542.5,-299 542.5,-293 542.5,-293 542.5,-279 542.5,-279 542.5,-273 548.5,-267 554.5,-267 554.5,-267 752.5,-267 752.5,-267 758.5,-267 764.5,-273 764.5,-279 764.5,-279 764.5,-293 764.5,-293 764.5,-299 758.5,-305 752.5,-305"/>
<text text-anchor="middle" x="653.5" y="-289.8" font-family="Helvetica,sans-Serif" font-size="14.00">instinctlab.envs:InstinctRlEnv</text>
<text text-anchor="middle" x="653.5" y="-274.8" font-family="Helvetica,sans-Serif" font-size="14.00">(InstinctRlEnv)</text>
</g>
<!-- gym_make&#45;&gt;instinct_env -->
<g id="edge5" class="edge">
<title>gym_make&#45;&gt;instinct_env</title>
<path fill="none" stroke="black" d="M586.94,-351.99C598.78,-340.43 614.33,-325.25 627.42,-312.47"/>
<polygon fill="black" stroke="black" points="630.09,-314.75 634.8,-305.26 625.2,-309.74 630.09,-314.75"/>
<text text-anchor="middle" x="689.5" y="-326" font-family="Times,serif" font-size="10.00">entry_point &#45;&gt; InstinctRlEnv</text>
</g>
<!-- manager_based -->
<g id="node7" class="node">
<title>manager_based</title>
<path fill="#f8f9fb" stroke="#2b2f33" d="M759,-216C759,-216 548,-216 548,-216 542,-216 536,-210 536,-204 536,-204 536,-190 536,-190 536,-184 542,-178 548,-178 548,-178 759,-178 759,-178 765,-178 771,-184 771,-190 771,-190 771,-204 771,-204 771,-210 765,-216 759,-216"/>
<text text-anchor="middle" x="653.5" y="-200.8" font-family="Helvetica,sans-Serif" font-size="14.00">ManagerBasedRLEnv (isaaclab)</text>
<text text-anchor="middle" x="653.5" y="-185.8" font-family="Helvetica,sans-Serif" font-size="14.00">(scene/sensors/managers init)</text>
</g>
<!-- instinct_env&#45;&gt;manager_based -->
<g id="edge7" class="edge">
<title>instinct_env&#45;&gt;manager_based</title>
<path fill="none" stroke="black" d="M653.5,-266.97C653.5,-255.19 653.5,-239.56 653.5,-226.16"/>
<polygon fill="black" stroke="black" points="657,-226 653.5,-216 650,-226 657,-226"/>
<text text-anchor="middle" x="740.5" y="-237.8" font-family="Times,serif" font-size="14.00">subclass / init managers</text>
</g>
<!-- motion_ref -->
<g id="node8" class="node">
<title>motion_ref</title>
<path fill="#f8f9fb" stroke="#2b2f33" d="M424,-127C424,-127 143,-127 143,-127 137,-127 131,-121 131,-115 131,-115 131,-101 131,-101 131,-95 137,-89 143,-89 143,-89 424,-89 424,-89 430,-89 436,-95 436,-101 436,-101 436,-115 436,-115 436,-121 430,-127 424,-127"/>
<text text-anchor="middle" x="283.5" y="-111.8" font-family="Helvetica,sans-Serif" font-size="14.00">MotionReferenceManager</text>
<text text-anchor="middle" x="283.5" y="-96.8" font-family="Helvetica,sans-Serif" font-size="14.00">(load MotionBuffer(s) from Amass/Aistpp)</text>
</g>
<!-- manager_based&#45;&gt;motion_ref -->
<g id="edge8" class="edge">
<title>manager_based&#45;&gt;motion_ref</title>
<path fill="none" stroke="black" d="M535.75,-188.96C464.05,-183.37 380.01,-174.11 346.5,-160 332.31,-154.02 318.74,-143.84 307.85,-134.13"/>
<polygon fill="black" stroke="black" points="310.13,-131.47 300.42,-127.22 305.36,-136.59 310.13,-131.47"/>
<text text-anchor="middle" x="437" y="-148.8" font-family="Times,serif" font-size="14.00">installs motion_reference</text>
</g>
<!-- multi_reward -->
<g id="node9" class="node">
<title>multi_reward</title>
<path fill="#f8f9fb" stroke="#2b2f33" d="M604.5,-127C604.5,-127 466.5,-127 466.5,-127 460.5,-127 454.5,-121 454.5,-115 454.5,-115 454.5,-101 454.5,-101 454.5,-95 460.5,-89 466.5,-89 466.5,-89 604.5,-89 604.5,-89 610.5,-89 616.5,-95 616.5,-101 616.5,-101 616.5,-115 616.5,-115 616.5,-121 610.5,-127 604.5,-127"/>
<text text-anchor="middle" x="535.5" y="-111.8" font-family="Helvetica,sans-Serif" font-size="14.00">MultiRewardManager</text>
<text text-anchor="middle" x="535.5" y="-96.8" font-family="Helvetica,sans-Serif" font-size="14.00">(grouped rewards)</text>
</g>
<!-- manager_based&#45;&gt;multi_reward -->
<g id="edge9" class="edge">
<title>manager_based&#45;&gt;multi_reward</title>
<path fill="none" stroke="black" d="M556.72,-177.86C548.95,-173.16 542,-167.3 536.5,-160 531.68,-153.61 530.14,-145.37 530.16,-137.39"/>
<polygon fill="black" stroke="black" points="533.67,-137.46 530.95,-127.22 526.69,-136.92 533.67,-137.46"/>
<text text-anchor="middle" x="643" y="-148.8" font-family="Times,serif" font-size="14.00">may replace reward_manager</text>
</g>
<!-- monitor_mgr -->
<g id="node10" class="node">
<title>monitor_mgr</title>
<path fill="#f8f9fb" stroke="#2b2f33" d="M863,-127C863,-127 680,-127 680,-127 674,-127 668,-121 668,-115 668,-115 668,-101 668,-101 668,-95 674,-89 680,-89 680,-89 863,-89 863,-89 869,-89 875,-95 875,-101 875,-101 875,-115 875,-115 875,-121 869,-127 863,-127"/>
<text text-anchor="middle" x="771.5" y="-111.8" font-family="Helvetica,sans-Serif" font-size="14.00">MonitorManager</text>
<text text-anchor="middle" x="771.5" y="-96.8" font-family="Helvetica,sans-Serif" font-size="14.00">(monitors &amp; monitor terms)</text>
</g>
<!-- manager_based&#45;&gt;monitor_mgr -->
<g id="edge10" class="edge">
<title>manager_based&#45;&gt;monitor_mgr</title>
<path fill="none" stroke="black" d="M722.55,-177.96C732.39,-173.26 741.77,-167.37 749.5,-160 756.12,-153.69 760.86,-145.05 764.2,-136.68"/>
<polygon fill="black" stroke="black" points="767.54,-137.72 767.5,-127.13 760.93,-135.43 767.54,-137.72"/>
<text text-anchor="middle" x="852" y="-148.8" font-family="Times,serif" font-size="14.00">installs monitor_manager</text>
</g>
<!-- wrapper -->
<g id="node11" class="node">
<title>wrapper</title>
<path fill="#f8f9fb" stroke="#2b2f33" d="M1073.5,-127C1073.5,-127 905.5,-127 905.5,-127 899.5,-127 893.5,-121 893.5,-115 893.5,-115 893.5,-101 893.5,-101 893.5,-95 899.5,-89 905.5,-89 905.5,-89 1073.5,-89 1073.5,-89 1079.5,-89 1085.5,-95 1085.5,-101 1085.5,-101 1085.5,-115 1085.5,-115 1085.5,-121 1079.5,-127 1073.5,-127"/>
<text text-anchor="middle" x="989.5" y="-111.8" font-family="Helvetica,sans-Serif" font-size="14.00">InstinctRlVecEnvWrapper</text>
<text text-anchor="middle" x="989.5" y="-96.8" font-family="Helvetica,sans-Serif" font-size="14.00">(adapt to runner)</text>
</g>
<!-- manager_based&#45;&gt;wrapper -->
<g id="edge11" class="edge">
<title>manager_based&#45;&gt;wrapper</title>
<path fill="none" stroke="black" d="M771.13,-190.45C839.34,-185.52 917.52,-176.45 947.5,-160 957.97,-154.25 966.87,-144.75 973.75,-135.49"/>
<polygon fill="black" stroke="black" points="976.69,-137.39 979.48,-127.17 970.92,-133.41 976.69,-137.39"/>
<text text-anchor="middle" x="1045.5" y="-148.8" font-family="Times,serif" font-size="14.00">env instance returned</text>
</g>
<!-- runner -->
<g id="node12" class="node">
<title>runner</title>
<path fill="#f8f9fb" stroke="#2b2f33" d="M1151.5,-38C1151.5,-38 827.5,-38 827.5,-38 821.5,-38 815.5,-32 815.5,-26 815.5,-26 815.5,-12 815.5,-12 815.5,-6 821.5,0 827.5,0 827.5,0 1151.5,0 1151.5,0 1157.5,0 1163.5,-6 1163.5,-12 1163.5,-12 1163.5,-26 1163.5,-26 1163.5,-32 1157.5,-38 1151.5,-38"/>
<text text-anchor="middle" x="989.5" y="-22.8" font-family="Helvetica,sans-Serif" font-size="14.00">OnPolicyRunner (instinct_rl)</text>
<text text-anchor="middle" x="989.5" y="-7.8" font-family="Helvetica,sans-Serif" font-size="14.00">(runner.learn: sample → optimize → checkpoint)</text>
</g>
<!-- wrapper&#45;&gt;runner -->
<g id="edge12" class="edge">
<title>wrapper&#45;&gt;runner</title>
<path fill="none" stroke="black" d="M989.5,-88.97C989.5,-77.19 989.5,-61.56 989.5,-48.16"/>
<polygon fill="black" stroke="black" points="993,-48 989.5,-38 986,-48 993,-48"/>
<text text-anchor="middle" x="1083.5" y="-59.8" font-family="Times,serif" font-size="14.00">passed to OnPolicyRunner</text>
</g>
</g>
</svg>
